<svg version="1.1" id="Layer_1" xmlns="http://www.w3.org/2000/svg" xmlns:xlink="http://www.w3.org/1999/xlink" x="0px" y="0px"
	 width="100%" viewBox="0 0 2048 2048" enable-background="new 0 0 2048 2048" xml:space="preserve">
<path fill="#FFFFFF" opacity="1.000000" stroke="none" 
	d="
M1360.000000,2049.000000 
	C906.666687,2049.000000 453.833344,2049.000000 1.000000,2049.000000 
	C1.000000,1366.333374 1.000000,683.666687 1.000000,1.000000 
	C683.666687,1.000000 1366.333374,1.000000 2049.000000,1.000000 
	C2049.000000,683.666687 2049.000000,1366.333374 2049.000000,2049.000000 
	C1819.500000,2049.000000 1590.000000,2049.000000 1360.000000,2049.000000 
M971.105713,617.500000 
	C971.105713,686.395813 971.105713,755.291687 971.105713,824.143188 
	C983.721069,824.143188 995.174622,824.143188 1005.873047,824.143188 
	C1005.873047,755.694519 1005.873047,687.509216 1005.873047,619.800659 
	C1006.144348,620.379883 1006.762085,621.632812 1007.324890,622.909912 
	C1030.599609,675.727722 1053.894775,728.536560 1077.070801,781.397522 
	C1078.343872,784.301025 1079.860229,785.332642 1082.992065,785.187378 
	C1088.645020,784.924988 1094.322510,785.013672 1099.983398,785.177124 
	C1102.596436,785.252563 1104.183716,784.731750 1105.257080,781.971252 
	C1107.848877,775.305847 1110.856934,768.801208 1113.732910,762.247498 
	C1133.663086,716.830383 1153.602295,671.417236 1173.540283,626.003479 
	C1174.233032,624.425781 1174.944580,622.856323 1175.882202,620.757263 
	C1175.882202,689.040222 1175.882202,756.576904 1175.882202,824.056519 
	C1187.634277,824.056519 1199.381226,824.056519 1211.029297,824.056519 
	C1211.029297,737.498108 1211.029297,651.300476 1211.029297,564.982605 
	C1197.650024,564.982605 1184.663330,565.135864 1171.684326,564.886719 
	C1167.917603,564.814453 1166.213745,566.093994 1164.769043,569.505493 
	C1147.635498,609.963684 1130.311646,650.341309 1113.091309,690.762878 
	C1106.141113,707.077271 1099.321899,723.447449 1092.167236,740.447266 
	C1089.619385,734.453674 1087.338623,728.975830 1084.970581,723.536072 
	C1062.448486,671.798340 1039.893188,620.075134 1017.435547,568.309509 
	C1016.343323,565.791931 1015.084534,564.806946 1012.277954,564.910278 
	C1005.954773,565.143188 999.616821,564.974792 993.284912,564.972961 
	C986.022888,564.970947 978.760803,564.972473 971.106201,564.972473 
	C971.106201,582.567627 971.106201,599.533813 971.105713,617.500000 
M1399.432617,586.932495 
	C1396.579346,579.666077 1393.725952,572.399597 1390.862305,565.106689 
	C1378.228394,565.106689 1365.903198,565.292480 1353.589233,564.997620 
	C1349.716309,564.904785 1348.156128,566.285767 1346.840576,569.728455 
	C1314.709961,653.806152 1282.467529,737.841003 1250.263916,821.890747 
	C1249.992065,822.600708 1249.975464,823.408508 1249.789307,824.452881 
	C1261.292236,824.452881 1272.438721,824.313660 1283.577881,824.539185 
	C1286.838745,824.605225 1288.143433,823.518494 1289.191895,820.501221 
	C1295.745972,801.641541 1302.566650,782.874695 1309.197510,764.041443 
	C1310.018799,761.709106 1311.030640,760.628113 1313.721313,760.634216 
	C1351.034302,760.718872 1388.347656,760.700989 1425.660767,760.638733 
	C1428.156982,760.634583 1429.398926,761.267883 1430.285889,763.879700 
	C1435.901001,780.414368 1441.746826,796.870911 1447.561768,813.337280 
	C1451.474731,824.417236 1451.507935,824.392395 1463.056274,824.366821 
	C1472.302979,824.346313 1481.549683,824.362671 1491.708008,824.362671 
	C1460.824097,744.861145 1430.286377,666.250732 1399.432617,586.932495 
M953.571289,1104.957642 
	C950.630554,1104.957642 947.689819,1104.957642 944.609375,1104.957642 
	C944.609375,1117.197998 944.609375,1128.754395 944.609375,1140.870483 
	C946.959595,1140.870483 949.255127,1140.870483 951.550720,1140.870361 
	C1053.345581,1140.863892 1155.140503,1140.852173 1256.935425,1140.852783 
	C1334.072998,1140.853149 1411.210693,1140.816895 1488.347900,1140.995361 
	C1493.551514,1141.007446 1495.030029,1139.316040 1494.780884,1134.447632 
	C1494.474609,1128.465942 1494.722656,1122.455933 1494.728027,1116.458252 
	C1494.731323,1112.723511 1494.728638,1108.988770 1494.728638,1104.957886 
	C1314.050415,1104.957886 1134.299683,1104.957886 953.571289,1104.957642 
M566.568604,583.086792 
	C544.299744,598.310120 529.457275,619.098022 520.871094,644.471802 
	C512.979919,667.791931 511.691193,691.802795 514.403259,716.059021 
	C517.232788,741.366394 525.385071,764.688599 541.661804,784.717529 
	C574.490906,825.114441 633.176514,840.269043 683.728821,821.516968 
	C701.564941,814.900818 716.552490,804.321655 729.528809,789.766296 
	C722.328918,782.661377 715.350281,775.770935 708.363464,768.888794 
	C707.904053,768.436157 707.382019,768.047058 706.910522,767.646606 
	C685.929749,785.870728 676.895691,790.799255 657.757690,794.507385 
	C619.332520,801.952698 584.021057,786.051514 565.853149,752.559082 
	C549.746155,722.865906 548.652222,691.336670 556.812012,659.345032 
	C567.877258,615.962402 604.524109,591.027161 648.986572,595.782043 
	C669.646301,597.991455 687.825317,605.834167 703.391357,620.109741 
	C710.602112,611.647156 717.671082,603.350952 724.696228,595.106140 
	C689.604492,556.060547 614.256348,549.941833 566.568604,583.086792 
M813.500000,1274.001587 
	C716.790161,1274.001587 620.080261,1274.001587 523.381470,1274.001587 
	C523.381470,1286.419189 523.381470,1297.993164 523.381470,1309.756104 
	C693.079529,1309.756104 862.433899,1309.756104 1031.870117,1309.756104 
	C1031.870117,1297.784790 1031.870117,1286.082642 1031.870117,1274.001343 
	C959.066956,1274.001343 886.783508,1274.001343 813.500000,1274.001587 
M750.500000,933.004089 
	C674.929626,933.004089 599.359253,933.004089 523.699829,933.004089 
	C523.699829,945.405945 523.699829,957.109253 523.699829,968.811279 
	C685.823425,968.811279 847.500732,968.811279 1008.875244,968.811279 
	C1008.875244,956.732666 1008.875244,945.022583 1008.875244,933.003784 
	C922.722595,933.003784 837.111328,933.003784 750.500000,933.004089 
M1356.500000,969.106506 
	C1402.428467,969.106506 1448.356934,969.106506 1494.428467,969.106506 
	C1494.428467,956.793274 1494.428467,945.093689 1494.428467,933.328613 
	C1385.782837,933.328613 1277.561523,933.328613 1169.101318,933.328613 
	C1169.101318,945.277954 1169.101318,956.862854 1169.101318,969.107300 
	C1231.327881,969.107300 1293.413940,969.107300 1356.500000,969.106506 
M1236.500000,1310.000000 
	C1322.381104,1310.000000 1408.262207,1310.000000 1494.223389,1310.000000 
	C1494.223389,1297.736084 1494.223389,1286.045532 1494.223389,1274.423218 
	C1392.435303,1274.423218 1291.112793,1274.423218 1189.748291,1274.423218 
	C1189.748291,1286.442993 1189.748291,1298.026123 1189.748291,1310.000000 
	C1205.232910,1310.000000 1220.366455,1310.000000 1236.500000,1310.000000 
M1172.926025,1317.437744 
	C1172.927612,1298.949463 1173.031860,1280.460571 1172.902710,1261.973267 
	C1172.764771,1242.212891 1159.607910,1229.039673 1139.951172,1228.931641 
	C1120.963867,1228.827271 1101.975464,1228.876221 1082.987671,1228.918091 
	C1062.483521,1228.963257 1049.543945,1241.669922 1049.338379,1262.178101 
	C1049.148193,1281.164307 1049.105347,1300.153809 1049.201538,1319.140747 
	C1049.307373,1339.995850 1062.150391,1352.790649 1082.917969,1352.874023 
	C1101.239258,1352.947510 1119.561035,1352.905640 1137.882690,1352.879272 
	C1160.157104,1352.847290 1172.600220,1340.587891 1172.926025,1317.437744 
M1140.851440,1455.500000 
	C1140.801392,1448.173828 1140.958130,1440.839233 1140.660522,1433.523193 
	C1139.897949,1414.777710 1127.046265,1402.067261 1108.379272,1401.863647 
	C1089.067871,1401.653076 1069.751709,1401.781128 1050.438232,1401.882568 
	C1030.480713,1401.987427 1017.483704,1414.685181 1017.258606,1434.554810 
	C1017.034058,1454.366943 1017.030518,1474.183960 1017.180115,1493.997070 
	C1017.322937,1512.904907 1030.420044,1525.928711 1049.348267,1526.068115 
	C1068.495483,1526.209106 1087.644653,1526.137085 1106.792847,1526.090332 
	C1127.403809,1526.039917 1140.391602,1513.238403 1140.748169,1492.464722 
	C1140.953857,1480.479492 1140.830322,1468.488403 1140.851440,1455.500000 
M829.452454,816.792664 
	C829.452454,810.201477 829.452454,803.610352 829.452454,796.928345 
	C825.019531,797.277588 821.704285,797.786438 818.394592,797.752197 
	C809.155823,797.656738 803.779541,792.968445 802.592834,783.796143 
	C802.061401,779.688049 802.098511,775.489624 802.098450,771.332153 
	C802.097412,699.866943 802.131042,628.401733 802.156982,556.936523 
	C802.157654,554.989563 802.156982,553.042542 802.156982,550.979004 
	C789.902283,550.979004 778.154053,550.979004 766.115906,550.979004 
	C766.115906,553.078857 766.115845,554.899963 766.115967,556.721008 
	C766.118591,611.027832 766.046387,665.334900 766.158813,719.641479 
	C766.206726,742.791565 766.153442,765.960449 767.081360,789.083252 
	C767.640259,803.010315 773.294617,815.212097 786.224304,822.155945 
	C800.135620,829.627136 814.983826,828.670227 830.217651,825.560730 
	C829.972656,822.645325 829.765381,820.179016 829.452454,816.792664 
M1101.119995,887.174500 
	C1078.101929,884.054993 1058.041260,889.598022 1041.532837,906.705627 
	C1022.892639,926.022339 1018.516968,959.051025 1031.932739,982.299133 
	C1049.431641,1012.622925 1082.303345,1023.929932 1114.819702,1010.810242 
	C1141.528809,1000.033569 1159.173828,967.971497 1153.300049,939.971497 
	C1147.371948,911.712402 1130.727173,893.518677 1101.119995,887.174500 
M919.020813,1157.491089 
	C928.681519,1142.764893 932.122681,1126.776367 928.952759,1109.379883 
	C922.567810,1074.339233 888.051514,1050.777710 853.224426,1057.744507 
	C820.831482,1064.224609 800.501953,1089.680908 801.015625,1123.601074 
	C801.538208,1158.111206 828.564026,1186.552979 865.820007,1186.505493 
	C887.868591,1186.477417 905.903137,1176.645996 919.020813,1157.491089 
M719.500000,1140.859985 
	C741.763184,1140.859985 764.026306,1140.859985 785.752563,1140.859985 
	C785.752563,1128.633423 785.752563,1117.072144 785.752563,1105.257080 
	C698.097534,1105.257080 610.879028,1105.257080 523.557983,1105.257080 
	C523.557983,1117.274170 523.557983,1128.950317 523.557983,1140.860474 
	C588.866333,1140.860474 653.683167,1140.860474 719.500000,1140.859985 
M907.768555,742.500000 
	C907.768555,705.758606 907.768555,669.017273 907.768555,632.312500 
	C895.815186,632.312500 884.431519,632.312500 873.013977,632.312500 
	C873.013977,696.437012 873.013977,760.188721 873.013977,824.114624 
	C884.610901,824.114624 896.031860,824.114624 907.769897,824.114624 
	C907.769897,797.057800 907.769897,770.278870 907.768555,742.500000 
M905.500000,1482.636108 
	C936.765686,1482.636108 968.031311,1482.636108 999.435852,1482.636108 
	C999.435852,1470.206543 999.435852,1458.473633 999.435852,1446.433350 
	C840.599182,1446.433350 682.108093,1446.433350 523.409485,1446.433350 
	C523.409485,1458.570801 523.409485,1470.435547 523.409485,1482.630859 
	C650.676086,1482.630859 777.588074,1482.630859 905.500000,1482.636108 
M905.090088,555.332581 
	C899.636780,551.498413 893.507385,550.423584 887.015381,551.029053 
	C876.807678,551.981201 869.462402,558.612976 867.318726,568.702881 
	C865.206055,578.646973 869.064331,588.558411 876.836975,593.154358 
	C887.197815,599.280701 902.382874,596.806213 909.070618,587.901794 
	C916.400818,578.141785 914.994995,564.934631 905.090088,555.332581 
M1243.500000,1446.218384 
	C1215.066650,1446.218384 1186.633301,1446.218384 1157.973755,1446.218384 
	C1157.973755,1458.588257 1157.973755,1470.347046 1157.973755,1482.346436 
	C1270.322510,1482.346436 1382.482422,1482.346436 1494.658203,1482.346436 
	C1494.658203,1470.153442 1494.658203,1458.414307 1494.658203,1446.215576 
	C1411.019043,1446.215576 1327.759521,1446.215576 1243.500000,1446.218384 
z"/>
<path fill="#244865" opacity="1.000000" stroke="none" 
	d="
M971.105957,617.000000 
	C971.106201,599.533813 971.106201,582.567627 971.106201,564.972473 
	C978.760803,564.972473 986.022888,564.970947 993.284912,564.972961 
	C999.616821,564.974792 1005.954773,565.143188 1012.277954,564.910278 
	C1015.084534,564.806946 1016.343323,565.791931 1017.435547,568.309509 
	C1039.893188,620.075134 1062.448486,671.798340 1084.970581,723.536072 
	C1087.338623,728.975830 1089.619385,734.453674 1092.167236,740.447266 
	C1099.321899,723.447449 1106.141113,707.077271 1113.091309,690.762878 
	C1130.311646,650.341309 1147.635498,609.963684 1164.769043,569.505493 
	C1166.213745,566.093994 1167.917603,564.814453 1171.684326,564.886719 
	C1184.663330,565.135864 1197.650024,564.982605 1211.029297,564.982605 
	C1211.029297,651.300476 1211.029297,737.498108 1211.029297,824.056519 
	C1199.381226,824.056519 1187.634277,824.056519 1175.882202,824.056519 
	C1175.882202,756.576904 1175.882202,689.040222 1175.882202,620.757263 
	C1174.944580,622.856323 1174.233032,624.425781 1173.540283,626.003479 
	C1153.602295,671.417236 1133.663086,716.830383 1113.732910,762.247498 
	C1110.856934,768.801208 1107.848877,775.305847 1105.257080,781.971252 
	C1104.183716,784.731750 1102.596436,785.252563 1099.983398,785.177124 
	C1094.322510,785.013672 1088.645020,784.924988 1082.992065,785.187378 
	C1079.860229,785.332642 1078.343872,784.301025 1077.070801,781.397522 
	C1053.894775,728.536560 1030.599609,675.727722 1007.324890,622.909912 
	C1006.762085,621.632812 1006.144348,620.379883 1005.873047,619.800659 
	C1005.873047,687.509216 1005.873047,755.694519 1005.873047,824.143188 
	C995.174622,824.143188 983.721069,824.143188 971.105713,824.143188 
	C971.105713,755.291687 971.105713,686.395813 971.105957,617.000000 
z"/>
<path fill="#254A67" opacity="1.000000" stroke="none" 
	d="
M1399.590698,587.286377 
	C1430.286377,666.250732 1460.824097,744.861145 1491.708008,824.362671 
	C1481.549683,824.362671 1472.302979,824.346313 1463.056274,824.366821 
	C1451.507935,824.392395 1451.474731,824.417236 1447.561768,813.337280 
	C1441.746826,796.870911 1435.901001,780.414368 1430.285889,763.879700 
	C1429.398926,761.267883 1428.156982,760.634583 1425.660767,760.638733 
	C1388.347656,760.700989 1351.034302,760.718872 1313.721313,760.634216 
	C1311.030640,760.628113 1310.018799,761.709106 1309.197510,764.041443 
	C1302.566650,782.874695 1295.745972,801.641541 1289.191895,820.501221 
	C1288.143433,823.518494 1286.838745,824.605225 1283.577881,824.539185 
	C1272.438721,824.313660 1261.292236,824.452881 1249.789307,824.452881 
	C1249.975464,823.408508 1249.992065,822.600708 1250.263916,821.890747 
	C1282.467529,737.841003 1314.709961,653.806152 1346.840576,569.728455 
	C1348.156128,566.285767 1349.716309,564.904785 1353.589233,564.997620 
	C1365.903198,565.292480 1378.228394,565.106689 1390.862305,565.106689 
	C1393.725952,572.399597 1396.579346,579.666077 1399.590698,587.286377 
M1415.985718,726.628662 
	C1400.506470,684.421326 1385.027222,642.214050 1369.362915,599.502197 
	C1353.423706,643.217957 1337.675171,686.410583 1321.817871,729.901489 
	C1353.739746,729.901489 1385.176880,729.901489 1416.877441,729.901489 
	C1416.633545,728.946960 1416.435791,728.173645 1415.985718,726.628662 
z"/>
<path fill="#81B2D5" opacity="1.000000" stroke="none" 
	d="
M954.060059,1104.957764 
	C1134.299683,1104.957886 1314.050415,1104.957886 1494.728638,1104.957886 
	C1494.728638,1108.988770 1494.731323,1112.723511 1494.728027,1116.458252 
	C1494.722656,1122.455933 1494.474609,1128.465942 1494.780884,1134.447632 
	C1495.030029,1139.316040 1493.551514,1141.007446 1488.347900,1140.995361 
	C1411.210693,1140.816895 1334.072998,1140.853149 1256.935425,1140.852783 
	C1155.140503,1140.852173 1053.345581,1140.863892 951.550720,1140.870361 
	C949.255127,1140.870483 946.959595,1140.870483 944.609375,1140.870483 
	C944.609375,1128.754395 944.609375,1117.197998 944.609375,1104.957642 
	C947.689819,1104.957642 950.630554,1104.957642 954.060059,1104.957764 
z"/>
<path fill="#264965" opacity="1.000000" stroke="none" 
	d="
M566.873047,582.894165 
	C614.256348,549.941833 689.604492,556.060547 724.696228,595.106140 
	C717.671082,603.350952 710.602112,611.647156 703.391357,620.109741 
	C687.825317,605.834167 669.646301,597.991455 648.986572,595.782043 
	C604.524109,591.027161 567.877258,615.962402 556.812012,659.345032 
	C548.652222,691.336670 549.746155,722.865906 565.853149,752.559082 
	C584.021057,786.051514 619.332520,801.952698 657.757690,794.507385 
	C676.895691,790.799255 685.929749,785.870728 706.910522,767.646606 
	C707.382019,768.047058 707.904053,768.436157 708.363464,768.888794 
	C715.350281,775.770935 722.328918,782.661377 729.528809,789.766296 
	C716.552490,804.321655 701.564941,814.900818 683.728821,821.516968 
	C633.176514,840.269043 574.490906,825.114441 541.661804,784.717529 
	C525.385071,764.688599 517.232788,741.366394 514.403259,716.059021 
	C511.691193,691.802795 512.979919,667.791931 520.871094,644.471802 
	C529.457275,619.098022 544.299744,598.310120 566.873047,582.894165 
z"/>
<path fill="#4C87B6" opacity="1.000000" stroke="none" 
	d="
M814.000000,1274.001465 
	C886.783508,1274.001343 959.066956,1274.001343 1031.870117,1274.001343 
	C1031.870117,1286.082642 1031.870117,1297.784790 1031.870117,1309.756104 
	C862.433899,1309.756104 693.079529,1309.756104 523.381470,1309.756104 
	C523.381470,1297.993164 523.381470,1286.419189 523.381470,1274.001587 
	C620.080261,1274.001587 716.790161,1274.001587 814.000000,1274.001465 
z"/>
<path fill="#5792BF" opacity="1.000000" stroke="none" 
	d="
M751.000000,933.003906 
	C837.111328,933.003784 922.722595,933.003784 1008.875244,933.003784 
	C1008.875244,945.022583 1008.875244,956.732666 1008.875244,968.811279 
	C847.500732,968.811279 685.823425,968.811279 523.699829,968.811279 
	C523.699829,957.109253 523.699829,945.405945 523.699829,933.004089 
	C599.359253,933.004089 674.929626,933.004089 751.000000,933.003906 
z"/>
<path fill="#5691BF" opacity="1.000000" stroke="none" 
	d="
M1356.000000,969.106934 
	C1293.413940,969.107300 1231.327881,969.107300 1169.101318,969.107300 
	C1169.101318,956.862854 1169.101318,945.277954 1169.101318,933.328613 
	C1277.561523,933.328613 1385.782837,933.328613 1494.428467,933.328613 
	C1494.428467,945.093689 1494.428467,956.793274 1494.428467,969.106506 
	C1448.356934,969.106506 1402.428467,969.106506 1356.000000,969.106934 
z"/>
<path fill="#4C87B6" opacity="1.000000" stroke="none" 
	d="
M1236.000000,1310.000000 
	C1220.366455,1310.000000 1205.232910,1310.000000 1189.748291,1310.000000 
	C1189.748291,1298.026123 1189.748291,1286.442993 1189.748291,1274.423218 
	C1291.112793,1274.423218 1392.435303,1274.423218 1494.223389,1274.423218 
	C1494.223389,1286.045532 1494.223389,1297.736084 1494.223389,1310.000000 
	C1408.262207,1310.000000 1322.381104,1310.000000 1236.000000,1310.000000 
z"/>
<path fill="#4987B8" opacity="1.000000" stroke="none" 
	d="
M1172.921265,1317.925293 
	C1172.600220,1340.587891 1160.157104,1352.847290 1137.882690,1352.879272 
	C1119.561035,1352.905640 1101.239258,1352.947510 1082.917969,1352.874023 
	C1062.150391,1352.790649 1049.307373,1339.995850 1049.201538,1319.140747 
	C1049.105347,1300.153809 1049.148193,1281.164307 1049.338379,1262.178101 
	C1049.543945,1241.669922 1062.483521,1228.963257 1082.987671,1228.918091 
	C1101.975464,1228.876221 1120.963867,1228.827271 1139.951172,1228.931641 
	C1159.607910,1229.039673 1172.764771,1242.212891 1172.902710,1261.973267 
	C1173.031860,1280.460571 1172.927612,1298.949463 1172.921265,1317.925293 
M1102.500000,1260.178345 
	C1095.390137,1260.178345 1088.280151,1260.178345 1080.968750,1260.178345 
	C1080.968750,1280.707031 1080.968750,1300.579834 1080.968750,1320.648926 
	C1101.150391,1320.648926 1120.987427,1320.648926 1140.741943,1320.648926 
	C1140.741943,1300.343872 1140.741943,1280.463989 1140.741943,1260.179810 
	C1128.072632,1260.179810 1115.786255,1260.179810 1102.500000,1260.178345 
z"/>
<path fill="#306A94" opacity="1.000000" stroke="none" 
	d="
M1140.853271,1456.000000 
	C1140.830322,1468.488403 1140.953857,1480.479492 1140.748169,1492.464722 
	C1140.391602,1513.238403 1127.403809,1526.039917 1106.792847,1526.090332 
	C1087.644653,1526.137085 1068.495483,1526.209106 1049.348267,1526.068115 
	C1030.420044,1525.928711 1017.322937,1512.904907 1017.180115,1493.997070 
	C1017.030518,1474.183960 1017.034058,1454.366943 1017.258606,1434.554810 
	C1017.483704,1414.685181 1030.480713,1401.987427 1050.438232,1401.882568 
	C1069.751709,1401.781128 1089.067871,1401.653076 1108.379272,1401.863647 
	C1127.046265,1402.067261 1139.897949,1414.777710 1140.660522,1433.523193 
	C1140.958130,1440.839233 1140.801392,1448.173828 1140.853271,1456.000000 
M1066.500732,1494.273926 
	C1080.589722,1494.273926 1094.678711,1494.273926 1108.921387,1494.273926 
	C1108.921387,1473.552979 1108.921387,1453.511353 1108.921387,1433.382812 
	C1088.557861,1433.382812 1068.532227,1433.382812 1048.604492,1433.382812 
	C1048.604492,1453.794678 1048.604492,1473.822510 1048.604492,1494.267334 
	C1054.539917,1494.267334 1060.020752,1494.267334 1066.500732,1494.273926 
z"/>
<path fill="#264964" opacity="1.000000" stroke="none" 
	d="
M829.505310,817.252686 
	C829.765381,820.179016 829.972656,822.645325 830.217651,825.560730 
	C814.983826,828.670227 800.135620,829.627136 786.224304,822.155945 
	C773.294617,815.212097 767.640259,803.010315 767.081360,789.083252 
	C766.153442,765.960449 766.206726,742.791565 766.158813,719.641479 
	C766.046387,665.334900 766.118591,611.027832 766.115967,556.721008 
	C766.115845,554.899963 766.115906,553.078857 766.115906,550.979004 
	C778.154053,550.979004 789.902283,550.979004 802.156982,550.979004 
	C802.156982,553.042542 802.157654,554.989563 802.156982,556.936523 
	C802.131042,628.401733 802.097412,699.866943 802.098450,771.332153 
	C802.098511,775.489624 802.061401,779.688049 802.592834,783.796143 
	C803.779541,792.968445 809.155823,797.656738 818.394592,797.752197 
	C821.704285,797.786438 825.019531,797.277588 829.452454,796.928345 
	C829.452454,803.610352 829.452454,810.201477 829.505310,817.252686 
z"/>
<path fill="#7EB0D4" opacity="1.000000" stroke="none" 
	d="
M1101.547607,887.246460 
	C1130.727173,893.518677 1147.371948,911.712402 1153.300049,939.971497 
	C1159.173828,967.971497 1141.528809,1000.033569 1114.819702,1010.810242 
	C1082.303345,1023.929932 1049.431641,1012.622925 1031.932739,982.299133 
	C1018.516968,959.051025 1022.892639,926.022339 1041.532837,906.705627 
	C1058.041260,889.598022 1078.101929,884.054993 1101.547607,887.246460 
M1069.357300,923.775452 
	C1060.112061,931.058228 1055.491577,940.543518 1055.939453,952.347534 
	C1056.458740,966.030273 1062.717529,976.283997 1075.206299,981.969971 
	C1087.218384,987.439026 1099.106201,986.269958 1109.441895,977.937012 
	C1120.707031,968.854614 1124.674561,956.515198 1121.154541,942.622009 
	C1115.330322,919.634705 1090.530884,910.545837 1069.357300,923.775452 
z"/>
<path fill="#7EB0D4" opacity="1.000000" stroke="none" 
	d="
M918.809692,1157.782471 
	C905.903137,1176.645996 887.868591,1186.477417 865.820007,1186.505493 
	C828.564026,1186.552979 801.538208,1158.111206 801.015625,1123.601074 
	C800.501953,1089.680908 820.831482,1064.224609 853.224426,1057.744507 
	C888.051514,1050.777710 922.567810,1074.339233 928.952759,1109.379883 
	C932.122681,1126.776367 928.681519,1142.764893 918.809692,1157.782471 
M845.784302,1148.812988 
	C849.372314,1150.523193 852.799316,1152.835327 856.574707,1153.845093 
	C879.851807,1160.071777 900.810364,1141.415039 897.812988,1116.734863 
	C896.251343,1103.876099 888.755676,1094.627441 876.490967,1090.033325 
	C864.232239,1085.441528 852.704407,1087.410278 843.071655,1096.371094 
	C827.204163,1111.131836 828.292847,1133.826782 845.784302,1148.812988 
z"/>
<path fill="#82B3D4" opacity="1.000000" stroke="none" 
	d="
M719.000000,1140.860229 
	C653.683167,1140.860474 588.866333,1140.860474 523.557983,1140.860474 
	C523.557983,1128.950317 523.557983,1117.274170 523.557983,1105.257080 
	C610.879028,1105.257080 698.097534,1105.257080 785.752563,1105.257080 
	C785.752563,1117.072144 785.752563,1128.633423 785.752563,1140.859985 
	C764.026306,1140.859985 741.763184,1140.859985 719.000000,1140.860229 
z"/>
<path fill="#244865" opacity="1.000000" stroke="none" 
	d="
M907.769226,743.000000 
	C907.769897,770.278870 907.769897,797.057800 907.769897,824.114624 
	C896.031860,824.114624 884.610901,824.114624 873.013977,824.114624 
	C873.013977,760.188721 873.013977,696.437012 873.013977,632.312500 
	C884.431519,632.312500 895.815186,632.312500 907.768555,632.312500 
	C907.768555,669.017273 907.768555,705.758606 907.769226,743.000000 
z"/>
<path fill="#507189" opacity="1.000000" stroke="none" 
	d="
M905.000000,1482.633545 
	C777.588074,1482.630859 650.676086,1482.630859 523.409485,1482.630859 
	C523.409485,1470.435547 523.409485,1458.570801 523.409485,1446.433350 
	C682.108093,1446.433350 840.599182,1446.433350 999.435852,1446.433350 
	C999.435852,1458.473633 999.435852,1470.206543 999.435852,1482.636108 
	C968.031311,1482.636108 936.765686,1482.636108 905.000000,1482.633545 
M915.500000,1481.039062 
	C940.494690,1481.039062 965.489319,1481.039673 990.484009,1481.038818 
	C998.028870,1481.038574 998.030823,1481.036621 998.033508,1473.745605 
	C998.035706,1467.746826 998.032837,1461.748169 998.031616,1455.749390 
	C998.030029,1447.969604 998.029785,1447.966553 990.474731,1447.966309 
	C872.166931,1447.963989 753.859192,1447.962524 635.551392,1447.961060 
	C600.725586,1447.960693 565.899353,1448.046021 531.074463,1447.863770 
	C526.176880,1447.838135 524.628967,1449.429199 524.877197,1454.192505 
	C525.215027,1460.673584 524.960938,1467.185303 524.960876,1473.683960 
	C524.960754,1481.043579 524.960815,1481.043945 532.082581,1481.043823 
	C659.555054,1481.042358 787.027527,1481.040771 915.500000,1481.039062 
z"/>
<path fill="#264964" opacity="1.000000" stroke="none" 
	d="
M905.371094,555.559692 
	C914.994995,564.934631 916.400818,578.141785 909.070618,587.901794 
	C902.382874,596.806213 887.197815,599.280701 876.836975,593.154358 
	C869.064331,588.558411 865.206055,578.646973 867.318726,568.702881 
	C869.462402,558.612976 876.807678,551.981201 887.015381,551.029053 
	C893.507385,550.423584 899.636780,551.498413 905.371094,555.559692 
z"/>
<path fill="#507189" opacity="1.000000" stroke="none" 
	d="
M1244.000000,1446.217041 
	C1327.759521,1446.215576 1411.019043,1446.215576 1494.658203,1446.215576 
	C1494.658203,1458.414307 1494.658203,1470.153442 1494.658203,1482.346436 
	C1382.482422,1482.346436 1270.322510,1482.346436 1157.973755,1482.346436 
	C1157.973755,1470.347046 1157.973755,1458.588257 1157.973755,1446.218384 
	C1186.633301,1446.218384 1215.066650,1446.218384 1244.000000,1446.217041 
M1493.004639,1478.071045 
	C1493.016479,1470.071899 1492.906738,1462.069946 1493.087158,1454.074585 
	C1493.189819,1449.521973 1491.214355,1447.912109 1486.779663,1447.914551 
	C1379.621338,1447.973022 1272.463135,1447.975952 1165.304810,1447.899780 
	C1160.477783,1447.896240 1158.668945,1449.844238 1158.961426,1454.496216 
	C1159.398438,1461.448242 1160.028442,1468.423584 1159.831177,1475.367920 
	C1159.696289,1480.118652 1161.298462,1481.147583 1165.775513,1481.136108 
	C1220.437500,1480.995972 1275.100098,1481.048340 1329.762451,1481.048340 
	C1381.925049,1481.048340 1434.087524,1481.070801 1486.249878,1480.956543 
	C1488.454590,1480.951660 1490.656494,1479.666138 1493.004639,1478.071045 
z"/>
<path fill="#FCFEFE" opacity="1.000000" stroke="none" 
	d="
M1416.111938,727.014526 
	C1416.435791,728.173645 1416.633545,728.946960 1416.877441,729.901489 
	C1385.176880,729.901489 1353.739746,729.901489 1321.817871,729.901489 
	C1337.675171,686.410583 1353.423706,643.217957 1369.362915,599.502197 
	C1385.027222,642.214050 1400.506470,684.421326 1416.111938,727.014526 
z"/>
<path fill="#FCFEFE" opacity="1.000000" stroke="none" 
	d="
M1103.000000,1260.179077 
	C1115.786255,1260.179810 1128.072632,1260.179810 1140.741943,1260.179810 
	C1140.741943,1280.463989 1140.741943,1300.343872 1140.741943,1320.648926 
	C1120.987427,1320.648926 1101.150391,1320.648926 1080.968750,1320.648926 
	C1080.968750,1300.579834 1080.968750,1280.707031 1080.968750,1260.178345 
	C1088.280151,1260.178345 1095.390137,1260.178345 1103.000000,1260.179077 
z"/>
<path fill="#FCFEFE" opacity="1.000000" stroke="none" 
	d="
M1066.001099,1494.270630 
	C1060.020752,1494.267334 1054.539917,1494.267334 1048.604492,1494.267334 
	C1048.604492,1473.822510 1048.604492,1453.794678 1048.604492,1433.382812 
	C1068.532227,1433.382812 1088.557861,1433.382812 1108.921387,1433.382812 
	C1108.921387,1453.511353 1108.921387,1473.552979 1108.921387,1494.273926 
	C1094.678711,1494.273926 1080.589722,1494.273926 1066.001099,1494.270630 
z"/>
<path fill="#FCFEFE" opacity="1.000000" stroke="none" 
	d="
M1069.652588,923.564575 
	C1090.530884,910.545837 1115.330322,919.634705 1121.154541,942.622009 
	C1124.674561,956.515198 1120.707031,968.854614 1109.441895,977.937012 
	C1099.106201,986.269958 1087.218384,987.439026 1075.206299,981.969971 
	C1062.717529,976.283997 1056.458740,966.030273 1055.939453,952.347534 
	C1055.491577,940.543518 1060.112061,931.058228 1069.652588,923.564575 
z"/>
<path fill="#FCFEFE" opacity="1.000000" stroke="none" 
	d="
M845.488403,1148.607056 
	C828.292847,1133.826782 827.204163,1111.131836 843.071655,1096.371094 
	C852.704407,1087.410278 864.232239,1085.441528 876.490967,1090.033325 
	C888.755676,1094.627441 896.251343,1103.876099 897.812988,1116.734863 
	C900.810364,1141.415039 879.851807,1160.071777 856.574707,1153.845093 
	C852.799316,1152.835327 849.372314,1150.523193 845.488403,1148.607056 
z"/>
<path fill="#2D618A" opacity="1.000000" stroke="none" 
	d="
M915.000000,1481.039062 
	C787.027527,1481.040771 659.555054,1481.042358 532.082581,1481.043823 
	C524.960815,1481.043945 524.960754,1481.043579 524.960876,1473.683960 
	C524.960938,1467.185303 525.215027,1460.673584 524.877197,1454.192505 
	C524.628967,1449.429199 526.176880,1447.838135 531.074463,1447.863770 
	C565.899353,1448.046021 600.725586,1447.960693 635.551392,1447.961060 
	C753.859192,1447.962524 872.166931,1447.963989 990.474731,1447.966309 
	C998.029785,1447.966553 998.030029,1447.969604 998.031616,1455.749390 
	C998.032837,1461.748169 998.035706,1467.746826 998.033508,1473.745605 
	C998.030823,1481.036621 998.028870,1481.038574 990.484009,1481.038818 
	C965.489319,1481.039673 940.494690,1481.039062 915.000000,1481.039062 
z"/>
<path fill="#2C6088" opacity="1.000000" stroke="none" 
	d="
M1492.932129,1478.524170 
	C1490.656494,1479.666138 1488.454590,1480.951660 1486.249878,1480.956543 
	C1434.087524,1481.070801 1381.925049,1481.048340 1329.762451,1481.048340 
	C1275.100098,1481.048340 1220.437500,1480.995972 1165.775513,1481.136108 
	C1161.298462,1481.147583 1159.696289,1480.118652 1159.831177,1475.367920 
	C1160.028442,1468.423584 1159.398438,1461.448242 1158.961426,1454.496216 
	C1158.668945,1449.844238 1160.477783,1447.896240 1165.304810,1447.899780 
	C1272.463135,1447.975952 1379.621338,1447.973022 1486.779663,1447.914551 
	C1491.214355,1447.912109 1493.189819,1449.521973 1493.087158,1454.074585 
	C1492.906738,1462.069946 1493.016479,1470.071899 1492.932129,1478.524170 
z"/>
</svg>